<svg width="17" height="16" viewBox="0 0 17 16" fill="none" xmlns="http://www.w3.org/2000/svg">
<path d="M14.4925 1.0715L14.4925 1.07152L1.99156 5.80308L1.98327 5.80622V5.80534C1.84617 5.85945 1.72872 5.954 1.64657 6.07649C1.56324 6.20074 1.5203 6.34768 1.52362 6.49725C1.52693 6.64682 1.57633 6.79172 1.66507 6.91216C1.75378 7.03255 1.87747 7.12263 2.01927 7.17012C2.01933 7.17014 2.01939 7.17016 2.01945 7.17018L2.03191 7.17413L2.03408 7.17481L2.03403 7.17492L6.32347 9.0066C6.40288 9.03048 6.48716 9.03322 6.56797 9.01455C6.64919 8.99579 6.72406 8.95605 6.78512 8.8993L13.6708 2.48334C13.6709 2.48324 13.671 2.48314 13.6711 2.48304C13.6937 2.46048 13.7205 2.44258 13.75 2.43035C13.7797 2.41807 13.8115 2.41175 13.8436 2.41175C13.8757 2.41175 13.9075 2.41807 13.9371 2.43035C13.9668 2.44264 13.9937 2.46064 14.0164 2.48334C14.0391 2.50603 14.0571 2.53297 14.0694 2.56263C14.0817 2.59228 14.088 2.62406 14.088 2.65616C14.088 2.68825 14.0817 2.72004 14.0694 2.74969C14.0572 2.77921 14.0393 2.80605 14.0167 2.82869C14.0166 2.82878 14.0165 2.82888 14.0164 2.82898L7.60012 9.71149L14.4925 1.0715ZM14.4925 1.0715C14.6235 1.02171 14.766 1.01083 14.9029 1.04015C15.0399 1.06947 15.1654 1.13775 15.2645 1.23676M14.4925 1.0715L15.2645 1.23676M15.2645 1.23676C15.3636 1.33623 15.4317 1.46227 15.4607 1.59965C15.4896 1.73703 15.4781 1.87985 15.4276 2.01085L15.4276 2.01099L10.6968 14.5081L15.2645 1.23676ZM9.96858 14.9999H9.99983C10.1543 15.0008 10.3054 14.9552 10.4336 14.869C10.5618 14.7829 10.6611 14.6601 10.7186 14.5168L10.6967 14.5085L10.6967 14.5083C10.641 14.6472 10.5447 14.7661 10.4205 14.8496C10.2962 14.9331 10.1497 14.9773 9.99996 14.9765H9.99983H9.9691M9.96858 14.9999L9.96963 14.9765C9.96945 14.9765 9.96928 14.9765 9.9691 14.9765M9.96858 14.9999V14.9765H9.9691M9.96858 14.9999C9.66264 14.9862 9.40952 14.7818 9.30952 14.4921C9.30733 14.4862 9.30545 14.4805 9.30358 14.4743L7.47077 10.1812M9.9691 14.9765C9.67379 14.963 9.42874 14.7657 9.33168 14.4844L9.33151 14.484C9.32949 14.4785 9.32777 14.4734 9.32603 14.4675L9.32617 14.4675L9.32513 14.4651L7.49283 10.1731M7.49283 10.1731C7.49295 10.1735 7.49307 10.1739 7.49319 10.1743L7.47077 10.1812M7.49283 10.1731C7.46895 10.0937 7.4662 10.0095 7.48487 9.92865C7.50363 9.84744 7.54336 9.77257 7.6001 9.71152L7.46204 9.92337C7.44235 10.0086 7.44536 10.0975 7.47077 10.1812M7.49283 10.1731L7.49232 10.172L7.47077 10.1812" fill="black" stroke="#112211" stroke-width="0.046875"/>
</svg>
